# xmcd
#
# Track frame offsets:
#	150
#	25983
#	53149
#	78776
#	107322
#	139807
#	171023
#
# Disc length: 2635 seconds
#
# Revision: 1
# Processed by: cddbd v1.5.1PL2 Copyright (c) Steve Scherf et al.
# Submitted via: EasyCDDAExtractor 9.0.0.1
#
DISCID=4b0a4907
DTITLE=Blue Oyster Cult - Crest Theatre Sacramento 04-11-88 Disc 1
DYEAR=1988
DGENRE=Hard Rock
TTITLE0=R U Ready 2 Rock 
TTITLE1=Dominance and Submission
TTITLE2=ETI
TTITLE3=I Am The One You Warned Me Of
TTITLE4=Buck's Boogie
TTITLE5=Astronomy
TTITLE6=Take Me Away
EXTD=
EXTT0=
EXTT1=
EXTT2=
EXTT3=
EXTT4=
EXTT5=
EXTT6=
PLAYORDER=
